<svg xmlns="http://www.w3.org/2000/svg" width="20" height="16" viewBox="0 0 20 16" shape-rendering="crispEdges">
<rect x="6" y="6" width="1" height="1" fill="#5fa65a"/>
<rect x="7" y="6" width="1" height="1" fill="#4e9150"/>
<rect x="8" y="6" width="1" height="1" fill="#5fa65a"/>
<rect x="4" y="7" width="3" height="1" fill="#5fa65a"/>
<rect x="7" y="7" width="1" height="1" fill="#4e9150"/>
<rect x="8" y="7" width="2" height="1" fill="#ede4d0"/>
<rect x="10" y="7" width="2" height="1" fill="#d8ccb2"/>
<rect x="3" y="8" width="1" height="1" fill="#ede4d0"/>
<rect x="4" y="8" width="1" height="1" fill="#5fa65a"/>
<rect x="5" y="8" width="1" height="1" fill="#4e9150"/>
<rect x="6" y="8" width="2" height="1" fill="#ede4d0"/>
<rect x="8" y="8" width="4" height="1" fill="#d8ccb2"/>
<rect x="12" y="8" width="2" height="1" fill="#c9b894"/>
<rect x="2" y="9" width="4" height="1" fill="#ede4d0"/>
<rect x="6" y="9" width="6" height="1" fill="#d8ccb2"/>
<rect x="12" y="9" width="3" height="1" fill="#c9b894"/>
<rect x="15" y="9" width="1" height="1" fill="#a89a7c"/>
<rect x="1" y="10" width="2" height="1" fill="#ede4d0"/>
<rect x="3" y="10" width="8" height="1" fill="#d8ccb2"/>
<rect x="11" y="10" width="5" height="1" fill="#c9b894"/>
<rect x="16" y="10" width="2" height="1" fill="#a89a7c"/>
<rect x="1" y="11" width="1" height="1" fill="#ede4d0"/>
<rect x="2" y="11" width="7" height="1" fill="#d8ccb2"/>
<rect x="9" y="11" width="6" height="1" fill="#c9b894"/>
<rect x="15" y="11" width="4" height="1" fill="#a89a7c"/>
<rect x="1" y="12" width="6" height="1" fill="#d8ccb2"/>
<rect x="7" y="12" width="7" height="1" fill="#c9b894"/>
<rect x="14" y="12" width="5" height="1" fill="#a89a7c"/>
<rect x="19" y="12" width="1" height="1" fill="#857960"/>
<rect x="2" y="13" width="9" height="1" fill="#c9b894"/>
<rect x="11" y="13" width="7" height="1" fill="#a89a7c"/>
<rect x="18" y="13" width="1" height="1" fill="#857960"/>
<rect x="3" y="14" width="11" height="1" fill="#a89a7c"/>
<rect x="14" y="14" width="4" height="1" fill="#857960"/>
<rect x="5" y="15" width="12" height="1" fill="#857960"/>
</svg>
